<?xml version="1.0" standalone="no"?>
<!DOCTYPE svg PUBLIC "-//W3C//DTD SVG 20010904//EN"
 "http://www.w3.org/TR/2001/REC-SVG-20010904/DTD/svg10.dtd">
<svg version="1.0" xmlns="http://www.w3.org/2000/svg"
 width="900.000000pt" height="1100.000000pt" viewBox="0 0 900.000000 1100.000000"
 preserveAspectRatio="xMidYMid meet">

<g transform="translate(0.000000,1100.000000) scale(0.100000,-0.100000)"
fill="#000000" stroke="none">
<path d="M4285 10770 c-225 -11 -350 -26 -575 -69 -250 -47 -665 -169 -685
-201 -4 -6 -11 -8 -16 -4 -18 11 -204 -70 -459 -198 -140 -71 -257 -133 -260
-137 -3 -5 -33 -23 -67 -41 -35 -18 -63 -36 -63 -40 0 -5 -10 -10 -22 -14 -13
-3 -39 -20 -58 -39 -19 -18 -78 -63 -130 -101 -91 -66 -160 -121 -221 -176
-15 -14 -63 -56 -105 -95 -83 -74 -174 -164 -264 -261 -59 -63 -86 -94 -181
-214 -32 -41 -65 -82 -72 -90 -50 -57 -167 -226 -167 -240 0 -5 -3 -10 -8 -10
-4 0 -16 -17 -27 -37 -11 -20 -25 -41 -30 -47 -6 -6 -21 -31 -33 -56 -24 -49
-36 -69 -68 -115 -20 -30 -125 -241 -203 -408 -23 -48 -55 -132 -72 -185 -17
-53 -41 -122 -54 -152 -13 -30 -28 -73 -33 -95 -6 -22 -31 -121 -57 -220 -75
-292 -110 -530 -124 -859 -5 -114 -8 -213 -6 -220 2 -6 6 -96 10 -200 3 -105
8 -192 10 -195 2 -4 11 -67 20 -141 16 -135 39 -261 76 -420 11 -47 22 -96 25
-110 7 -37 113 -366 140 -435 70 -181 113 -277 196 -440 50 -99 103 -199 119
-223 16 -24 29 -45 29 -47 0 -10 131 -210 194 -297 86 -117 136 -191 136 -198
-1 -11 -266 -270 -440 -429 -34 -31 -34 -33 -16 -47 11 -7 25 -14 31 -14 6 0
60 -18 121 -41 60 -22 123 -44 139 -49 17 -4 77 -25 135 -45 58 -21 222 -78
365 -127 143 -49 292 -101 330 -114 39 -14 95 -33 125 -44 30 -10 87 -30 125
-45 39 -14 82 -31 97 -37 16 -5 25 -14 22 -19 -3 -5 -153 -9 -344 -9 l-339 0
-48 -29 c-26 -15 -77 -48 -112 -72 -35 -24 -71 -48 -80 -54 -9 -5 -77 -50
-151 -100 -74 -49 -149 -97 -166 -106 -16 -9 -61 -39 -98 -65 -37 -27 -75 -53
-84 -59 -9 -5 -57 -37 -107 -71 -49 -34 -94 -63 -100 -65 -5 -2 -42 -25 -82
-52 -39 -26 -76 -47 -82 -47 -30 0 -32 -49 -31 -833 1 -435 4 -816 7 -846 l6
-54 4169 6 c2293 2 4172 7 4175 11 3 3 5 373 4 823 0 450 -1 837 -1 859 0 40
-2 42 -34 48 -19 4 -40 13 -46 21 -16 20 -145 105 -158 105 -5 0 -12 7 -16 15
-3 8 -17 20 -31 25 -14 5 -25 14 -25 19 0 5 -15 16 -32 24 -29 14 -153 99
-185 127 -7 5 -34 23 -60 38 -26 16 -68 43 -93 61 -83 58 -240 166 -258 176
-10 6 -24 16 -32 22 -43 36 -77 60 -95 67 -11 4 -155 9 -320 11 -165 2 -307 4
-315 4 -27 2 4 17 80 41 41 13 95 31 120 41 25 10 117 40 205 68 88 28 194 63
235 77 41 14 138 46 215 70 280 90 515 168 526 175 9 5 -53 71 -131 139 -14
12 -84 78 -156 148 -72 70 -152 144 -177 165 -25 21 -55 50 -66 66 l-21 29 37
53 c33 50 71 99 108 142 8 9 15 21 15 26 0 5 7 11 15 15 8 3 15 10 15 16 0 6
15 32 33 59 17 27 39 61 48 77 9 16 37 61 61 99 42 67 95 162 180 325 22 41
60 127 85 190 25 63 51 129 58 145 34 79 56 143 103 290 109 343 178 743 187
1084 3 96 5 177 6 180 2 20 -3 210 -8 276 -3 44 -5 87 -5 95 1 8 -5 53 -13
100 -7 47 -19 128 -24 180 -16 138 -37 255 -60 340 -11 41 -21 92 -21 112 0
20 -4 39 -10 43 -5 3 -17 31 -26 63 -44 152 -66 219 -80 244 -8 14 -14 32 -14
40 0 8 -15 50 -34 94 -18 43 -50 120 -71 169 -49 117 -181 373 -250 483 -29
48 -66 107 -81 132 -16 25 -51 77 -79 115 -28 39 -54 78 -58 88 -3 9 -11 17
-17 17 -5 0 -10 6 -10 13 0 12 -63 88 -160 192 -20 22 -71 81 -113 130 -104
123 -161 185 -170 185 -4 0 -31 24 -61 53 -30 28 -79 74 -110 101 -31 26 -56
54 -56 62 0 16 -48 62 -74 70 -11 4 -29 15 -40 26 -12 11 -42 31 -68 45 -27
15 -48 31 -48 37 0 11 -19 26 -65 50 -11 6 -31 18 -45 27 -163 102 -253 156
-345 204 -233 122 -296 154 -342 171 -27 10 -57 23 -68 30 -71 44 -447 169
-625 209 -69 15 -147 33 -175 40 -256 67 -749 105 -1120 85z m635 -120 c138
-12 435 -60 580 -94 298 -70 535 -152 750 -261 58 -30 116 -57 129 -61 43 -12
188 -96 223 -128 l33 -31 -30 -3 c-46 -5 -112 -39 -145 -75 -22 -24 -29 -42
-30 -73 0 -36 5 -47 35 -73 43 -38 92 -41 142 -10 19 12 36 19 39 16 9 -9 -37
-98 -117 -230 -16 -26 -29 -50 -29 -53 0 -2 -9 -14 -20 -26 -18 -19 -34 -49
-59 -108 -6 -14 -17 -33 -23 -43 -11 -15 -9 -21 12 -37 37 -29 52 -25 88 28
33 46 132 210 132 217 0 2 22 40 49 84 77 124 92 165 87 229 -5 58 -22 84 -69
109 -16 8 -26 17 -23 21 4 3 21 -1 39 -10 18 -9 56 -28 86 -43 43 -21 167
-105 226 -152 6 -5 44 -33 85 -64 187 -140 435 -382 644 -629 21 -25 45 -54
55 -65 35 -41 110 -143 165 -225 31 -47 60 -89 64 -95 4 -5 25 -39 47 -75 21
-36 60 -99 85 -140 56 -89 134 -244 186 -367 203 -487 263 -709 334 -1233 35
-264 35 -768 0 -965 -9 -48 -11 -63 -25 -170 -9 -69 -10 -71 -44 -235 -43
-205 -55 -251 -94 -370 -19 -58 -38 -120 -42 -137 -3 -18 -11 -35 -16 -38 -5
-4 -9 -13 -9 -22 0 -8 -18 -53 -40 -100 -22 -47 -40 -94 -40 -103 0 -10 -11
-38 -25 -61 -14 -24 -25 -51 -25 -60 0 -9 -7 -22 -15 -29 -8 -7 -15 -19 -15
-26 0 -8 -12 -33 -26 -56 -14 -23 -27 -46 -28 -52 -1 -6 -9 -22 -19 -36 -9
-13 -17 -29 -17 -35 0 -5 -9 -21 -20 -35 -11 -14 -20 -33 -20 -42 0 -9 -11
-30 -25 -46 -14 -17 -25 -33 -25 -36 0 -4 -8 -16 -18 -27 -11 -10 -25 -32 -33
-47 -8 -15 -36 -61 -64 -102 -51 -77 -69 -105 -81 -128 -3 -7 -21 -28 -40 -47
-18 -19 -40 -48 -49 -65 -8 -16 -25 -34 -36 -41 -24 -12 -28 -10 -130 91 -36
36 -106 102 -155 147 -122 112 -149 138 -170 165 -11 13 -41 41 -69 61 -27 21
-61 56 -76 78 -15 23 -42 50 -60 61 -47 28 -79 59 -79 76 0 8 10 27 23 42 12
15 29 37 37 50 8 12 28 41 45 64 50 69 75 107 75 112 0 2 12 23 27 47 66 103
174 313 209 406 13 36 29 70 35 77 6 7 16 35 24 61 7 26 20 68 29 93 26 76 64
211 80 285 8 39 22 102 30 140 32 145 49 363 49 625 0 296 -2 305 -65 297 -23
-3 -44 -11 -48 -18 -5 -6 -6 -42 -4 -78 8 -127 4 -490 -5 -533 -5 -24 -15 -88
-21 -143 -6 -55 -17 -125 -24 -155 -8 -30 -20 -82 -26 -115 -7 -33 -17 -73
-22 -90 -5 -16 -12 -41 -14 -54 -7 -37 -90 -276 -107 -308 -8 -16 -24 -50 -36
-76 -15 -34 -26 -47 -39 -45 -16 3 -92 101 -111 143 -5 11 -23 30 -40 43 -17
12 -31 27 -31 33 0 6 -22 38 -50 71 -49 59 -55 77 -52 158 0 3 3 88 7 190 3
102 8 202 10 223 2 21 7 114 11 207 6 153 5 170 -10 170 -9 0 -16 -4 -16 -9 0
-5 -10 -13 -22 -16 -13 -4 -32 -15 -43 -25 -18 -16 -184 -132 -223 -155 -9 -5
-38 -25 -65 -42 -56 -38 -79 -33 -103 20 -8 18 -28 50 -45 73 -19 25 -31 54
-32 77 -1 26 -8 39 -24 46 -12 5 -29 26 -38 45 -10 20 -21 36 -26 36 -5 0 -9
7 -9 15 0 13 -50 123 -78 170 -48 81 -287 738 -276 757 20 31 154 -120 219
-245 54 -104 70 -71 70 141 0 123 2 142 16 142 23 0 89 -50 131 -99 19 -22 40
-41 46 -41 6 0 16 16 22 35 13 38 21 204 12 220 -4 6 -7 24 -9 42 l-2 31 99
-1 c54 -1 101 1 105 5 12 11 -45 91 -110 154 -58 56 -104 86 -178 113 -32 12
-27 31 7 31 13 0 41 7 62 16 26 11 69 17 127 18 48 0 87 3 87 6 0 12 -39 47
-75 70 -55 34 -107 44 -239 45 -78 0 -121 5 -123 12 -11 31 86 149 184 224 29
23 53 45 53 49 0 15 -67 26 -123 18 -54 -7 -122 -36 -176 -75 l-23 -17 6 73
c3 40 8 84 11 97 3 13 7 35 10 49 14 65 -70 0 -115 -91 -14 -26 -31 -55 -38
-62 -7 -8 -22 -34 -34 -58 -11 -24 -27 -44 -35 -44 -30 0 1 150 52 249 14 29
25 57 23 62 -2 5 -26 -2 -54 -15 -65 -30 -216 -178 -268 -263 -21 -35 -42 -63
-47 -63 -8 0 -61 75 -71 101 -8 21 -64 49 -97 49 -14 0 -46 -9 -70 -20 -24
-11 -47 -20 -52 -20 -13 0 -78 -74 -73 -82 3 -5 22 -8 43 -8 51 0 141 -47 168
-89 13 -19 23 -37 23 -41 0 -4 -39 -7 -87 -6 -82 1 -92 -1 -147 -32 -33 -18
-73 -45 -89 -58 -34 -28 -91 -103 -84 -110 2 -3 44 2 93 10 53 8 105 11 129 7
40 -7 95 -37 95 -51 0 -4 -27 -19 -61 -34 -87 -38 -185 -138 -239 -246 -23
-45 -40 -86 -38 -90 2 -5 21 4 44 19 42 29 100 52 143 57 19 2 22 -1 18 -19
-41 -162 -58 -287 -39 -287 7 0 18 13 26 28 15 29 90 102 104 102 17 0 32 -26
32 -56 0 -72 62 -216 87 -201 5 3 15 30 22 59 12 56 44 118 60 118 10 0 21
-35 36 -110 14 -65 86 -180 114 -180 12 0 19 25 25 100 11 128 36 230 56 230
10 0 21 -28 79 -205 86 -261 175 -504 211 -575 64 -124 122 -274 114 -294 -5
-13 -48 -43 -174 -121 -61 -37 -115 -63 -122 -58 -5 2 -8 53 -8 112 0 123 -8
140 -54 116 -15 -8 -40 -25 -55 -38 -15 -13 -53 -36 -84 -52 -32 -15 -57 -32
-57 -37 0 -4 -4 -8 -10 -8 -5 0 -39 -18 -75 -40 -36 -22 -70 -40 -75 -40 -6 0
-10 -4 -10 -10 0 -5 -5 -10 -11 -10 -6 0 -24 -9 -40 -21 -48 -34 -61 -20 -59
64 4 145 1 197 -13 197 -7 0 -39 -22 -72 -50 -33 -27 -66 -50 -75 -50 -16 0
-26 28 -56 155 -15 64 -43 197 -49 230 -1 12 -10 50 -20 85 -29 116 -34 134
-50 215 -9 44 -23 108 -31 143 -8 35 -12 67 -9 72 3 5 -1 20 -10 33 -8 13 -24
69 -35 123 -10 54 -31 153 -46 219 -37 166 -38 173 -23 191 11 13 10 18 -8 32
-16 12 -30 51 -52 141 -17 68 -31 132 -31 142 0 11 -4 27 -9 37 -15 26 -42
164 -39 198 1 16 -4 40 -12 54 -7 13 -21 63 -30 110 -10 47 -26 122 -35 168
-11 50 -14 87 -9 92 7 7 1281 14 1826 10 l68 0 58 -57 c52 -51 195 -210 245
-272 40 -50 184 -268 244 -371 104 -177 239 -491 267 -627 11 -50 26 -56 81
-33 38 16 46 24 40 38 -23 55 -45 119 -45 132 -1 8 -20 63 -44 122 -38 97 -41
109 -27 123 14 13 13 15 -6 15 -24 0 -48 34 -84 120 -13 30 -39 82 -59 115
-19 33 -41 71 -48 85 -6 14 -39 66 -72 115 -33 50 -64 99 -69 110 -5 12 -17
27 -26 35 -10 8 -44 48 -75 90 -32 41 -76 93 -97 116 -21 22 -57 63 -80 90
-64 75 -111 123 -193 194 -41 36 -82 73 -91 83 -9 9 -20 17 -25 17 -5 0 -45
34 -89 75 -44 41 -83 75 -87 75 -5 0 -30 15 -56 33 -103 72 -544 297 -581 297
-6 0 -35 11 -64 25 -122 60 -437 138 -712 177 -223 32 -604 31 -840 -1 -93
-13 -192 -29 -220 -37 -27 -7 -92 -22 -143 -34 -88 -20 -184 -51 -367 -118
-92 -34 -446 -204 -484 -233 -14 -11 -69 -47 -121 -81 -52 -34 -104 -71 -115
-81 -11 -11 -37 -31 -59 -46 -73 -49 -82 -56 -116 -88 -19 -17 -46 -41 -60
-53 -54 -47 -129 -121 -211 -211 -150 -163 -159 -174 -165 -191 -3 -10 -9 -18
-14 -18 -5 0 -21 -20 -36 -45 -14 -25 -30 -45 -35 -45 -5 0 -9 -6 -9 -13 0 -8
-10 -22 -21 -33 -25 -22 -109 -149 -109 -164 0 -6 -3 -10 -7 -10 -5 0 -13 -10
-19 -23 -22 -45 -59 -112 -64 -117 -3 -3 -23 -41 -44 -85 -22 -44 -56 -116
-78 -160 -21 -44 -44 -102 -52 -130 -7 -27 -25 -81 -39 -120 -31 -87 -64 -207
-72 -260 -4 -22 -12 -58 -20 -80 -14 -42 -38 -184 -55 -325 -14 -121 -19 -445
-9 -581 36 -480 204 -1021 436 -1401 29 -48 53 -90 53 -93 0 -5 30 -49 117
-172 52 -73 51 -85 -10 -139 -23 -20 -81 -73 -128 -118 -47 -45 -152 -144
-234 -221 -82 -77 -187 -175 -232 -218 -60 -57 -89 -78 -105 -75 -29 4 -232
272 -309 410 -10 16 -28 46 -42 66 -30 45 -221 417 -232 452 -4 14 -18 48 -30
75 -12 28 -28 66 -35 85 -7 19 -19 49 -26 65 -6 17 -24 66 -38 110 -37 117
-67 207 -76 230 -5 11 -11 38 -14 60 -3 22 -13 69 -21 105 -30 123 -35 146
-65 325 -48 282 -63 647 -40 965 12 161 12 169 29 285 27 187 65 368 130 606
18 68 99 303 122 354 4 11 18 44 29 73 27 70 205 432 233 474 13 18 38 60 56
93 49 86 178 278 258 381 87 114 90 117 143 173 25 26 74 81 110 121 88 100
110 121 360 350 25 23 70 59 100 80 30 22 112 81 182 132 181 132 271 186 523
312 192 96 381 178 520 226 111 39 332 102 421 120 207 43 430 80 539 89 72 6
150 13 175 15 75 7 518 -3 640 -14z m1638 -706 c4 -25 -21 -59 -36 -50 -16 9
-15 49 0 64 16 16 32 10 36 -14z m112 -30 c0 -8 -4 -12 -10 -9 -5 3 -10 10
-10 16 0 5 5 9 10 9 6 0 10 -7 10 -16z m-1770 -365 c205 -20 402 -64 650 -145
108 -36 225 -90 225 -104 0 -8 -6 -16 -12 -16 -24 -3 -25 -4 -14 -18 18 -22
-24 -25 -378 -25 l-323 0 -26 29 c-33 38 -61 38 -94 0 -24 -28 -31 -30 -95
-30 -37 0 -74 4 -81 9 -10 6 -13 36 -10 122 1 63 -1 119 -4 125 -7 10 -114 12
-439 5 l-67 -1 -4 -121 c-5 -137 -6 -139 -83 -139 -56 0 -67 5 -84 38 -16 31
-51 28 -83 -8 l-27 -30 -360 0 c-217 1 -361 5 -361 10 0 5 17 18 38 28 20 10
46 24 57 30 66 39 312 125 465 162 96 24 191 49 210 56 43 15 477 40 655 37
72 -2 182 -8 245 -14z m-269 -139 c16 -9 19 -22 19 -81 0 -64 -2 -70 -23 -78
-27 -10 -268 -14 -292 -5 -12 5 -15 24 -15 84 0 66 3 79 18 83 35 9 274 7 293
-3z m1223 -136 c24 -9 19 -24 -8 -24 -33 0 -57 10 -50 21 6 10 35 12 58 3z
m267 -135 c56 -30 120 -82 109 -89 -7 -4 -277 -8 -600 -9 l-588 -2 -18 24
c-31 41 -60 43 -93 8 -27 -29 -33 -31 -105 -31 -73 0 -76 1 -82 26 -4 15 -3
39 2 53 9 25 14 26 94 31 47 3 349 4 672 3 438 -1 592 -4 609 -14z m-1896 -12
c3 -12 3 -35 1 -52 -3 -30 -4 -30 -68 -33 -63 -3 -88 6 -100 36 -1 5 -13 12
-25 16 -18 6 -29 0 -51 -24 l-28 -30 -539 0 c-296 0 -540 2 -542 4 -11 11 14
35 48 46 22 8 43 19 47 25 20 33 47 34 649 35 l603 0 5 -23z m423 -23 c5 -62
-4 -65 -174 -62 l-149 3 -1 45 c0 25 4 48 10 52 6 5 79 7 161 5 l150 -2 3 -41z
m-428 -169 c10 -12 11 -28 4 -63 l-9 -47 -60 -3 c-54 -3 -63 0 -85 23 -31 33
-72 33 -94 0 -15 -23 -23 -26 -74 -24 -31 1 -342 1 -690 0 -349 0 -638 1 -643
4 -5 4 6 18 23 33 18 15 35 30 36 35 2 4 20 19 40 32 l37 25 751 0 c665 0 753
-2 764 -15z m418 6 c9 -5 12 -25 10 -62 l-3 -54 -160 0 -160 0 -3 48 c-5 75
-1 77 162 77 77 0 147 -4 154 -9z m1788 -11 c40 -26 79 -86 61 -97 -7 -4 -335
-9 -729 -11 l-717 -3 -17 26 c-22 33 -63 33 -92 0 -20 -22 -29 -25 -95 -25
-43 0 -78 5 -85 12 -16 16 -16 90 0 106 9 9 206 12 826 12 801 0 815 0 848
-20z m-2226 -215 c9 -11 9 -27 0 -70 -7 -31 -13 -71 -15 -88 -2 -18 -8 -50
-14 -72 -27 -110 -63 -293 -81 -415 -6 -41 -16 -93 -22 -115 -22 -88 -27 -115
-48 -230 -11 -66 -25 -142 -31 -170 -5 -27 -21 -108 -35 -180 -14 -71 -32
-137 -39 -145 -9 -10 -12 -28 -9 -50 3 -20 -6 -88 -21 -160 -14 -69 -32 -163
-40 -210 -9 -47 -20 -93 -25 -102 -6 -10 -10 -25 -10 -33 0 -13 -25 -15 -167
-16 -93 -1 -289 -3 -438 -5 -148 -2 -291 -1 -316 2 -43 5 -47 8 -54 37 -4 18
-9 37 -10 42 -7 30 -24 126 -30 170 -4 28 -13 77 -22 110 -8 33 -19 87 -23
120 -7 49 -27 168 -46 270 -12 63 -44 254 -58 340 -9 55 -28 161 -42 235 -39
207 -41 241 -12 266 43 39 81 45 145 23 90 -31 138 -24 191 28 18 17 41 21
147 26 75 2 102 8 160 35 39 17 108 38 155 47 100 18 170 50 187 85 24 52 25
74 2 99 -21 22 -26 23 -93 15 -39 -5 -100 -8 -136 -9 -60 0 -70 3 -118 38 -29
20 -62 37 -75 37 -32 0 -95 -36 -181 -103 -83 -65 -142 -86 -241 -87 -128 -1
-189 -24 -295 -111 -52 -42 -102 -70 -145 -79 -83 -17 -5 -163 99 -186 17 -3
33 -10 36 -15 7 -10 -5 -158 -50 -609 -6 -58 -17 -177 -25 -265 -26 -299 -46
-490 -54 -520 -6 -24 -15 -31 -48 -40 -28 -7 -65 -32 -120 -82 -44 -40 -92
-82 -109 -95 -16 -12 -36 -29 -44 -38 -8 -8 -54 -50 -102 -93 -99 -86 -99 -85
22 -89 l65 -3 1 -75 2 -74 -47 -47 c-25 -26 -60 -55 -76 -65 -17 -11 -71 -50
-120 -89 l-89 -70 66 -7 c37 -3 72 -10 79 -13 8 -6 10 -57 4 -196 l-7 -189
2554 0 2555 0 33 -42 c53 -67 249 -296 282 -328 25 -26 28 -34 22 -67 -3 -21
-12 -43 -20 -49 -8 -6 -14 -15 -14 -19 0 -4 -16 -29 -35 -55 -19 -26 -35 -52
-35 -57 0 -5 -15 -30 -34 -54 -91 -120 -152 -204 -164 -225 -14 -26 -45 -37
-152 -54 -41 -7 -88 -16 -105 -21 -16 -4 -43 -10 -60 -12 -36 -6 -67 -13 -310
-73 -104 -25 -244 -61 -309 -80 -65 -19 -121 -32 -124 -30 -6 7 21 48 56 84
67 70 122 134 122 141 0 4 -10 17 -22 28 l-23 21 -195 -64 c-107 -35 -203 -64
-213 -64 -22 0 -15 34 23 105 15 28 60 113 100 189 l73 139 -22 19 c-29 23
-42 23 -69 -2 -12 -11 -25 -20 -30 -20 -5 0 -30 -16 -55 -35 -25 -19 -50 -35
-55 -35 -5 0 -19 -11 -32 -25 -13 -14 -32 -25 -43 -25 -11 0 -18 -3 -14 -6 7
-7 -31 -34 -107 -79 l-47 -27 6 28 c14 67 30 126 63 239 50 173 51 179 12 195
l-33 14 -67 -70 c-38 -38 -74 -74 -82 -80 -7 -6 -45 -46 -85 -89 -40 -42 -78
-75 -85 -73 -15 5 -16 61 -7 280 7 149 4 157 -46 161 -28 2 -35 -9 -189 -308
-17 -33 -37 -60 -44 -60 -14 0 -42 73 -62 160 -7 28 -25 96 -41 151 -16 56
-29 112 -29 123 0 23 -29 86 -36 79 -2 -2 -5 -13 -7 -24 -2 -10 -7 -26 -11
-34 -3 -8 -28 -103 -55 -210 -56 -222 -66 -253 -83 -248 -6 2 -28 33 -47 69
-20 35 -46 80 -58 99 -13 19 -23 39 -23 44 0 4 -13 28 -30 53 -16 24 -30 47
-30 51 0 8 -48 62 -55 62 -2 0 -16 -5 -30 -12 -19 -9 -25 -17 -21 -32 4 -20 9
-257 7 -373 -1 -29 -4 -53 -9 -53 -10 0 -47 37 -98 97 -23 26 -76 88 -118 136
-42 49 -76 93 -76 98 0 15 -33 10 -57 -9 -25 -19 -26 -9 22 -177 14 -49 28
-101 30 -115 3 -14 10 -38 15 -55 5 -16 12 -51 16 -77 7 -56 -1 -60 -56 -26
-19 11 -53 31 -75 43 -70 39 -208 125 -225 140 -9 8 -23 15 -31 15 -21 -1 -49
-25 -49 -43 0 -9 38 -72 85 -141 95 -139 145 -222 145 -237 0 -16 -144 9 -315
54 -74 20 -132 24 -144 12 -28 -31 -22 -54 25 -100 44 -42 46 -45 23 -45 -14
0 -29 4 -35 9 -5 5 -23 12 -41 14 -18 3 -65 14 -105 26 -147 41 -286 74 -423
101 -77 14 -162 32 -190 38 -27 7 -108 21 -178 32 -139 22 -147 24 -147 46 0
13 -31 57 -104 148 -18 23 -46 64 -61 91 -15 28 -36 62 -47 77 -10 15 -37 65
-58 110 -22 46 -56 112 -76 148 -39 69 -74 158 -131 330 -55 168 -70 220 -87
300 -8 41 -22 107 -30 145 -8 39 -18 97 -21 130 -3 33 -11 87 -17 120 -14 80
-13 494 2 620 54 471 192 899 402 1248 131 218 276 409 444 585 l89 92 876 0
c754 0 878 -2 889 -15z m347 -2 c6 -17 -42 -63 -64 -63 -11 0 -34 13 -53 29
-35 29 -35 29 -12 38 35 13 124 10 129 -4z m-183 -77 c34 -29 38 -36 31 -65
-3 -17 -15 -36 -26 -41 -10 -6 -19 -17 -19 -25 0 -13 -58 -45 -79 -45 -8 0 22
181 33 198 10 17 17 15 60 -22z m315 2 c5 -18 13 -49 17 -68 4 -19 15 -41 26
-48 13 -10 18 -23 16 -45 -3 -30 -5 -32 -37 -29 -21 3 -58 22 -97 50 -50 37
-63 53 -63 75 -1 20 4 27 17 27 10 0 33 16 52 35 42 43 56 44 69 3z m-135
-152 c70 -57 127 -119 117 -126 -8 -5 -139 -5 -331 0 -16 0 146 160 163 160 5
0 28 -15 51 -34z m54 -225 c42 -1 41 -20 -4 -51 -19 -14 -48 -35 -64 -47 -15
-13 -32 -23 -37 -23 -6 0 -21 10 -35 23 -14 12 -42 35 -62 50 -20 15 -36 32
-36 37 0 9 89 16 165 14 22 -1 55 -2 73 -3z m178 -58 c4 -16 15 -47 25 -69 18
-42 38 -234 24 -234 -19 0 -245 171 -245 186 0 20 152 143 177 144 7 0 16 -12
19 -27z m-465 -42 c35 -26 72 -58 82 -69 18 -20 18 -21 0 -46 -10 -14 -23 -26
-28 -26 -6 0 -21 -10 -35 -23 -14 -12 -59 -49 -100 -81 -69 -54 -75 -57 -78
-36 -2 12 3 52 11 89 8 36 21 98 27 136 14 79 25 105 44 105 7 0 42 -22 77
-49z m217 -158 c45 -29 114 -84 164 -133 l47 -45 -37 -7 c-57 -10 -441 -8
-447 3 -3 5 11 23 31 41 20 18 46 41 58 52 51 45 128 98 154 105 1 1 15 -7 30
-16z m-1993 -170 c6 -24 56 -299 145 -798 15 -88 36 -204 46 -258 13 -70 15
-100 7 -108 -14 -14 -320 -16 -333 -3 -6 6 -6 42 0 94 10 82 37 359 60 605 10
116 35 351 46 448 7 53 18 61 29 20z m2163 -122 c13 -8 -57 -56 -162 -112 -48
-26 -51 -26 -85 -10 -58 26 -201 113 -201 122 0 16 419 16 448 0z m-431 -107
c68 -41 113 -75 113 -85 0 -9 -13 -22 -30 -29 -16 -7 -30 -16 -30 -20 0 -4
-15 -15 -33 -23 -18 -9 -49 -27 -70 -41 -21 -14 -40 -26 -42 -26 -2 0 -31 -16
-65 -36 -61 -35 -88 -38 -71 -6 5 9 12 40 16 67 9 73 45 257 52 268 10 17 48
1 160 -69z m621 64 c21 -27 92 -361 79 -374 -6 -7 -88 35 -152 76 -22 15 -47
30 -55 33 -37 17 -154 93 -156 102 -5 15 74 74 168 126 92 52 101 55 116 37z
m-284 -259 c92 -52 175 -109 176 -120 0 -13 -122 -19 -330 -18 -118 1 -223 4
-234 8 -16 6 -10 13 35 42 30 20 83 53 119 74 36 21 74 44 85 51 34 22 58 16
149 -37z m89 -228 c121 -1 157 -4 157 -14 0 -7 -15 -20 -32 -28 -18 -9 -84
-41 -146 -73 -62 -32 -127 -60 -145 -63 -27 -4 -60 9 -187 74 -84 44 -156 85
-158 91 -2 8 40 12 150 14 84 2 164 2 178 2 14 -1 96 -2 183 -3z m-554 -101
c30 -17 58 -30 63 -30 8 0 83 -43 145 -84 33 -21 44 -46 20 -46 -7 0 -23 -9
-35 -20 -12 -11 -26 -20 -32 -20 -9 0 -115 -51 -254 -122 -55 -28 -115 -48
-119 -40 -2 4 6 66 19 137 37 213 47 259 57 272 10 14 44 3 136 -47z m885 28
c3 -13 12 -52 21 -88 23 -98 55 -272 55 -297 0 -13 -4 -23 -8 -23 -4 0 -84 39
-178 86 -93 47 -195 99 -226 115 -33 16 -58 36 -58 44 0 18 331 184 367 185
15 0 24 -7 27 -22z m-378 -284 c70 -36 143 -76 163 -88 20 -12 53 -30 73 -41
25 -13 33 -22 25 -27 -17 -11 -817 -9 -842 2 -17 7 -18 9 -2 9 15 1 39 13 112
59 53 34 303 151 321 151 12 1 79 -29 150 -65z m-238 -263 c9 -5 -1 -21 -39
-57 -28 -27 -63 -60 -77 -74 -15 -14 -45 -37 -67 -52 l-40 -28 -1072 0 c-618
0 -1073 4 -1073 9 0 13 97 111 163 164 l58 47 1067 0 c587 0 1073 -4 1080 -9z
m737 -1 c9 -14 75 -319 75 -345 0 -29 -90 -111 -130 -118 -16 -4 -45 -24 -66
-47 l-38 -40 -12 29 c-7 16 -21 32 -32 35 -11 4 -32 18 -46 31 -23 22 -26 31
-26 97 0 43 -6 84 -14 100 -16 31 -138 178 -147 178 -11 0 -58 77 -52 84 11
10 481 7 488 -4z m-500 -136 c137 -148 127 -130 138 -273 5 -69 13 -130 18
-135 5 -6 24 -15 41 -20 l33 -11 9 -223 c5 -133 5 -227 0 -232 -11 -11 -714
-17 -732 -6 -16 10 -17 328 0 359 6 12 38 56 70 98 l58 75 5 125 c5 124 5 124
38 157 79 79 201 182 217 182 9 0 56 -43 105 -96z m-455 -174 c10 -17 0 -103
-14 -118 -19 -20 -2089 -28 -2105 -8 -9 10 -10 32 -4 73 l8 58 165 5 c91 3
565 4 1054 3 655 -1 891 -4 896 -13z m2762 -120 c-6 -269 -17 -400 -33 -400
-5 0 -18 18 -29 40 -12 23 -27 43 -35 47 -8 3 -15 11 -15 18 0 10 -67 103 -90
125 -3 3 -9 12 -15 21 -5 9 -23 35 -39 58 l-29 42 23 17 c94 70 238 161 250
159 13 -2 15 -23 12 -127z m-555 69 c9 -18 15 -126 19 -343 6 -268 5 -319 -7
-327 -8 -5 -98 -9 -200 -9 -163 0 -188 2 -193 16 -12 32 -9 474 4 489 12 14
203 131 294 179 57 30 66 29 83 -5z m-481 -14 c10 -58 0 -643 -12 -655 -7 -7
-79 -10 -215 -8 l-204 3 3 130 c4 236 13 333 31 348 18 16 328 201 351 210 31
11 39 6 46 -28z m-527 -336 c1 -225 -2 -308 -11 -317 -13 -13 -384 -18 -391
-4 -10 18 10 348 22 367 7 11 42 44 78 73 36 29 75 66 87 84 11 17 35 36 51
41 17 5 48 24 70 42 63 50 79 57 87 37 4 -9 7 -154 7 -323z m-1275 166 c13
-14 11 -21 -25 -69 -22 -30 -50 -57 -62 -59 -12 -3 -112 -4 -222 -2 -110 2
-387 7 -615 10 -1223 16 -1282 17 -1288 34 -2 6 1 11 6 11 5 0 29 17 53 38 24
22 51 41 59 45 8 3 479 6 1047 6 911 1 1033 -1 1047 -14z m2456 -117 c46 -62
142 -214 180 -284 50 -90 45 -94 -98 -94 -93 0 -122 3 -132 15 -9 11 -11 63
-7 207 7 224 5 198 17 198 5 0 23 -19 40 -42z m-2955 -97 c226 -3 416 -10 423
-14 14 -10 18 -252 3 -261 -7 -5 -2112 -11 -2160 -7 -12 1 -13 25 -8 141 3 77
9 145 12 151 7 10 784 6 1730 -10z m1023 -892 c18 -63 43 -152 56 -198 12 -47
27 -86 33 -88 5 -2 19 18 31 44 28 64 147 290 162 308 7 8 15 13 19 10 4 -2 6
-95 5 -207 0 -112 1 -207 3 -211 3 -4 76 65 163 155 87 90 161 160 166 156 8
-8 -13 -146 -25 -163 -4 -5 -20 -57 -35 -115 -15 -58 -32 -120 -37 -138 -6
-19 -9 -36 -6 -38 2 -3 74 43 158 100 148 102 264 176 275 176 3 0 2 -10 -2
-22 -10 -35 -22 -58 -165 -325 -24 -45 -41 -84 -39 -86 3 -3 86 22 185 54 185
61 255 78 255 63 0 -17 -198 -212 -222 -219 -12 -3 -32 -10 -43 -15 -11 -4
-51 -20 -90 -36 -38 -15 -126 -54 -195 -87 -69 -32 -141 -67 -160 -76 -19 -9
-57 -30 -85 -46 -27 -17 -75 -43 -105 -59 -30 -16 -73 -42 -95 -57 -183 -129
-241 -169 -248 -169 -12 0 -91 56 -125 87 -15 14 -55 43 -89 65 -35 22 -63 44
-63 49 0 5 -6 9 -14 9 -7 0 -19 7 -26 15 -7 8 -31 24 -54 35 -22 11 -70 37
-106 59 -64 40 -173 95 -260 133 -25 10 -67 30 -95 43 -52 24 -128 58 -204 90
-24 11 -57 32 -75 48 -77 70 -96 91 -89 98 7 7 127 -15 361 -65 40 -9 78 -16
84 -16 9 0 -10 37 -34 65 -5 5 -45 65 -88 132 -43 67 -84 124 -90 128 -5 3
-10 15 -10 26 0 18 6 17 73 -18 39 -20 122 -68 184 -105 114 -69 140 -80 129
-53 -3 9 -13 41 -21 73 -9 31 -22 80 -30 107 -8 28 -16 77 -19 109 -3 33 -10
64 -16 70 -15 15 -12 36 4 36 15 0 116 -111 254 -278 24 -28 48 -52 53 -52 5
0 7 31 4 73 -11 153 -14 417 -5 417 10 0 87 -122 175 -278 32 -57 62 -99 66
-95 5 5 16 40 24 78 9 39 21 85 26 103 9 28 8 37 -7 53 -9 10 -14 22 -11 26 4
3 7 1 7 -5 0 -24 30 -11 36 16 16 71 39 132 48 129 6 -2 26 -55 44 -118z
m-2308 -469 c204 -31 629 -128 800 -182 239 -75 523 -181 630 -233 30 -15 93
-45 140 -67 88 -41 273 -147 395 -226 104 -68 188 -140 203 -174 10 -24 13
-170 14 -692 1 -364 -2 -676 -6 -694 -9 -40 -34 -42 -68 -4 -37 40 -101 96
-218 189 -58 46 -112 89 -120 96 -41 34 -262 181 -305 202 -22 11 -47 26 -56
32 -26 21 -368 188 -465 228 -49 20 -102 42 -119 50 -51 23 -320 117 -440 154
-38 12 -79 26 -90 31 -50 24 -116 43 -189 56 -44 7 -109 22 -145 33 -89 25
-274 71 -336 82 -27 5 -72 14 -100 20 -27 6 -66 12 -85 14 -19 2 -47 8 -62 14
-15 5 -67 15 -115 21 -111 13 -253 41 -253 49 0 8 249 339 278 370 14 14 83
104 222 285 149 195 291 365 308 368 9 2 24 3 32 1 8 -1 76 -12 150 -23z
m4709 -77 c28 -32 51 -63 51 -69 0 -5 16 -25 35 -44 19 -19 35 -38 35 -43 0
-5 11 -21 24 -35 32 -34 358 -445 421 -530 11 -15 53 -69 93 -120 71 -93 79
-107 64 -128 -9 -14 -104 -33 -172 -36 -30 0 -69 -7 -87 -14 -17 -8 -118 -31
-225 -53 -279 -57 -881 -216 -983 -260 -70 -30 -263 -101 -275 -101 -6 0 -30
-9 -53 -21 -23 -11 -69 -31 -102 -43 -128 -50 -553 -272 -645 -339 -14 -10
-59 -39 -100 -65 -41 -25 -77 -49 -80 -52 -3 -3 -21 -17 -40 -31 -19 -15 -46
-37 -60 -50 -14 -14 -42 -37 -64 -53 -21 -16 -72 -62 -114 -103 -60 -59 -81
-73 -101 -71 l-26 3 -2 560 c-2 308 -5 566 -8 573 -3 8 -2 19 2 25 4 7 6 65 5
129 l-2 118 35 39 c68 75 298 217 574 355 253 126 298 145 566 234 281 93 471
148 615 177 36 7 121 25 190 40 139 31 311 62 352 64 20 1 38 -12 77 -56z
m-5449 -441 c0 -5 -11 -19 -25 -32 -14 -13 -25 -29 -25 -35 0 -7 -11 -24 -24
-38 -13 -14 -34 -40 -47 -58 -13 -19 -29 -41 -36 -49 -7 -8 -28 -33 -47 -55
-79 -94 -206 -270 -206 -285 0 -12 17 -16 165 -35 66 -9 154 -21 195 -26 41
-6 127 -21 190 -34 63 -13 153 -31 200 -39 47 -9 155 -34 240 -55 85 -22 193
-50 240 -61 320 -82 767 -245 1075 -394 277 -134 596 -345 732 -483 23 -24 46
-43 52 -43 6 0 11 -7 11 -15 0 -8 -3 -15 -6 -15 -9 0 -788 262 -924 310 -63
23 -144 50 -179 62 -36 11 -74 26 -85 33 -12 8 -39 17 -60 21 -21 4 -62 16
-90 26 -28 11 -71 26 -96 33 -25 8 -135 45 -245 83 -110 38 -252 86 -315 107
-195 65 -234 78 -615 210 -148 51 -301 105 -340 120 -38 15 -83 31 -100 35
-32 9 -247 83 -277 95 -10 4 -18 13 -18 20 0 13 157 167 305 300 50 45 104 94
121 110 27 26 72 66 188 167 32 28 46 34 46 20z m6160 -228 c58 -54 111 -103
118 -109 19 -14 122 -108 206 -185 96 -89 136 -133 133 -145 -2 -5 -75 -34
-163 -63 -217 -72 -622 -204 -714 -232 -41 -12 -95 -31 -120 -41 -25 -9 -139
-47 -255 -84 -115 -36 -232 -75 -260 -85 -27 -10 -111 -37 -185 -61 -74 -23
-193 -62 -265 -86 -71 -24 -182 -60 -245 -79 -63 -19 -140 -44 -170 -54 -30
-10 -102 -33 -160 -51 -58 -17 -130 -41 -160 -51 -30 -10 -91 -30 -135 -44
-44 -14 -84 -30 -89 -35 -6 -5 -17 -9 -27 -9 -9 0 -68 -16 -130 -35 -172 -54
-186 -58 -197 -54 -15 5 124 124 211 181 40 26 77 51 82 55 20 16 71 48 105
66 19 10 46 26 59 34 103 65 456 241 566 281 50 18 113 42 140 54 127 54 533
183 746 237 408 104 647 152 952 190 87 11 162 23 168 26 9 6 -20 48 -98 144
-16 18 -43 56 -62 83 -18 28 -48 64 -66 82 -18 18 -41 46 -51 62 -21 32 -25
37 -54 73 -26 31 -27 56 -2 42 9 -5 64 -54 122 -107z m-40 -1127 c36 -23 67
-44 70 -47 3 -3 34 -25 70 -50 36 -24 88 -60 115 -79 28 -19 109 -74 180 -123
170 -114 211 -144 274 -198 45 -38 50 -45 34 -52 -10 -4 -261 -7 -558 -8 -297
0 -556 -1 -575 -1 -19 -1 -150 0 -290 0 -140 1 -631 2 -1090 3 -1114 2 -995
-1 -995 23 0 23 59 55 138 74 29 7 66 19 83 27 17 7 132 45 255 84 123 38 244
77 269 85 25 9 115 39 200 67 85 27 279 90 430 140 151 49 285 93 297 96 13 4
249 6 525 4 l503 -3 65 -42z m-5010 18 c41 -13 167 -56 280 -95 113 -39 349
-120 525 -180 692 -234 690 -233 690 -270 l0 -25 -265 -5 c-519 -11 -3234 -11
-3250 -1 -13 9 -12 12 5 25 11 9 25 16 31 16 6 0 17 7 24 15 14 16 685 464
779 520 34 20 105 23 591 24 l515 1 75 -25z m5960 -1439 l0 -753 -167 -6 c-93
-3 -1322 -6 -2733 -6 -1411 -1 -3167 -1 -3903 -1 -736 -1 -1342 2 -1347 5 -11
7 -14 1497 -3 1508 3 4 1839 7 4080 7 l4073 0 0 -754z"/>
<path d="M4280 10407 c-78 -26 -134 -104 -128 -177 3 -31 6 -35 33 -35 26 0
31 5 46 49 25 67 44 86 91 86 99 0 155 -167 95 -281 -20 -37 -30 -45 -65 -53
-52 -11 -85 8 -102 59 -11 32 -15 35 -51 35 -35 0 -39 -3 -39 -24 0 -56 38
-114 95 -143 56 -30 166 -12 218 35 45 40 74 166 58 244 -34 159 -138 243
-251 205z"/>
<path d="M4809 10375 c-59 -31 -124 -106 -139 -161 -7 -24 -10 -72 -8 -106 5
-72 35 -130 93 -173 l35 -27 20 23 c10 13 19 27 20 30 0 3 -15 22 -34 43 -53
60 -61 102 -36 184 21 72 34 89 89 117 49 25 130 8 170 -35 71 -78 58 -205
-29 -291 -47 -46 -51 -75 -14 -89 14 -6 87 -17 162 -26 75 -9 166 -19 202 -24
36 -4 69 -4 73 0 13 11 35 150 47 282 5 62 12 128 16 146 7 38 -14 61 -57 62
-30 0 -27 13 -60 -233 -11 -83 -22 -154 -25 -159 -9 -15 -193 -2 -210 15 -4 4
6 46 21 94 26 83 27 92 16 148 -7 33 -16 62 -20 65 -4 3 -15 19 -25 35 -53 92
-208 132 -307 80z"/>
<path d="M3769 10351 c-36 -7 -94 -42 -116 -69 -11 -14 -20 -14 -60 -4 -108
28 -221 -30 -260 -132 -33 -89 1 -216 80 -300 53 -55 110 -91 127 -81 6 4 17
19 25 35 15 29 15 30 -17 46 -49 25 -76 53 -105 108 -21 42 -25 59 -21 119 3
64 6 72 37 99 30 27 39 30 78 25 67 -7 77 -27 128 -237 14 -58 28 -113 31
-122 6 -22 52 -24 78 -5 18 13 18 18 -9 128 -15 63 -31 122 -36 131 -13 25
-11 112 2 142 23 51 111 52 157 3 11 -12 31 -44 43 -71 17 -40 20 -60 15 -107
-8 -68 -23 -117 -43 -140 -12 -15 -10 -19 19 -37 29 -19 34 -19 49 -6 9 8 29
42 44 76 24 54 27 69 22 132 -9 120 -37 181 -107 237 -39 30 -102 42 -161 30z"/>
<path d="M2848 10258 c-21 -12 -38 -27 -38 -34 0 -7 -4 -14 -10 -16 -13 -4
-24 -90 -16 -122 5 -20 13 -26 34 -26 16 0 37 6 48 14 16 13 17 18 7 35 -23
37 12 91 58 91 39 0 57 -31 168 -292 51 -119 99 -225 105 -234 11 -14 18 -15
49 -5 21 7 37 17 37 23 0 6 -14 43 -31 82 -39 90 -63 148 -85 208 -9 26 -23
53 -30 59 -8 6 -14 17 -14 24 0 36 -81 177 -115 199 -36 24 -122 20 -167 -6z"/>
<path d="M5743 10212 c-70 -29 -154 -117 -182 -191 -22 -59 -19 -159 6 -207
41 -77 159 -131 232 -106 28 10 32 8 68 -34 43 -51 93 -73 166 -74 111 -1 209
108 224 250 7 70 -12 163 -40 196 -22 26 -22 26 -55 7 -33 -19 -39 -32 -23
-48 11 -12 23 -86 22 -135 -3 -72 -31 -130 -80 -165 -34 -23 -44 -25 -87 -18
-41 7 -50 13 -58 36 -13 37 4 122 44 222 18 44 34 92 37 108 3 15 9 30 14 33
18 11 8 32 -20 44 -49 20 -60 11 -98 -85 -95 -241 -104 -255 -172 -255 -46 0
-76 20 -98 67 -16 34 -16 40 0 101 22 83 49 118 125 162 34 19 62 40 62 47 0
7 -10 23 -22 37 -23 25 -23 25 -65 8z"/>
<path d="M2822 10026 c-12 -7 -25 -16 -28 -19 -4 -4 33 -85 81 -181 48 -96 85
-182 83 -192 -1 -9 -18 -24 -35 -33 -35 -17 -41 -37 -19 -66 13 -18 17 -19 51
-6 21 7 52 23 70 35 18 11 41 26 50 31 17 10 14 19 -34 110 -28 55 -77 153
-109 217 -59 121 -66 128 -110 104z"/>
<path d="M2468 9853 c-9 -2 -20 -18 -23 -35 -8 -33 4 -47 40 -48 11 0 38 -9
60 -19 104 -49 164 -164 129 -250 -13 -33 -23 -43 -54 -52 -53 -16 -80 -6
-131 47 -146 153 -183 172 -281 139 -56 -20 -102 -63 -131 -126 -19 -44 -25
-49 -54 -49 -47 0 -76 -14 -118 -57 -52 -54 -68 -96 -62 -168 5 -71 20 -103
78 -168 47 -54 126 -95 200 -104 41 -5 48 -3 59 16 22 42 9 65 -40 73 -62 11
-145 53 -166 86 -60 89 -67 126 -33 182 27 43 36 50 74 50 32 0 71 -22 92 -51
25 -33 134 -165 164 -196 l30 -33 30 22 c28 21 39 48 19 48 -5 0 -10 6 -10 13
0 6 -18 31 -40 55 -22 24 -40 45 -40 48 0 2 -18 28 -41 56 -62 78 -72 110 -52
160 12 29 25 44 50 55 53 22 90 4 170 -82 38 -40 85 -83 106 -95 98 -58 236 4
283 127 14 36 15 50 5 90 -21 84 -74 166 -134 207 -45 31 -136 69 -156 65 -3
-1 -14 -3 -23 -6z"/>
<path d="M7084 9266 c-27 -13 -66 -37 -86 -55 -50 -43 -98 -144 -98 -204 0
-42 3 -48 30 -62 36 -19 46 -15 53 22 25 129 53 177 121 209 69 32 127 32 172
-2 18 -14 31 -30 29 -35 -3 -4 -27 -11 -53 -15 -91 -13 -173 -66 -203 -132
-31 -67 -35 -112 -13 -158 48 -104 163 -131 268 -62 41 27 107 116 121 163 17
57 31 63 55 24 32 -50 23 -146 -17 -197 -37 -47 -109 -83 -181 -91 -53 -6 -57
-8 -59 -33 -2 -31 19 -58 46 -58 87 0 229 58 252 103 6 12 19 31 29 42 23 26
50 109 50 153 0 56 -76 173 -132 203 -21 11 -38 33 -52 67 -12 28 -34 62 -49
76 -15 14 -27 32 -27 39 0 22 -23 27 -118 26 -69 0 -98 -5 -138 -23z m237
-237 c23 -12 20 -46 -7 -106 -15 -33 -96 -103 -120 -103 -29 0 -64 24 -73 51
-24 68 33 134 136 158 21 5 39 9 41 10 2 1 12 -4 23 -10z"/>
<path d="M1561 9053 c-53 -26 -99 -82 -117 -140 -8 -29 -14 -60 -12 -69 3 -16
-14 -29 -98 -74 -31 -17 -83 -104 -93 -154 -9 -47 -3 -101 14 -126 21 -32 64
-51 100 -44 46 8 115 82 115 123 0 44 -49 91 -94 91 l-37 0 18 25 c10 13 30
29 45 36 33 13 91 5 108 -16 7 -8 21 -15 33 -15 20 0 57 34 57 54 0 5 -21 29
-46 52 -42 39 -45 46 -39 76 15 75 82 120 137 92 51 -26 50 -105 -1 -176 -91
-125 -109 -153 -131 -196 -14 -26 -28 -50 -33 -53 -13 -10 -27 -73 -27 -125 0
-84 59 -129 139 -106 63 20 121 100 162 228 16 50 19 68 9 74 -9 5 -8 9 3 13
9 3 17 16 19 29 3 20 9 23 49 23 33 0 54 7 76 25 35 28 63 79 63 114 0 30 -46
76 -75 76 -44 0 -94 -29 -109 -63 -8 -17 -24 -48 -34 -67 -31 -56 -40 -79 -68
-178 -41 -148 -101 -219 -146 -175 -19 19 -19 20 2 67 22 51 71 129 136 216
117 155 124 276 21 351 -46 34 -94 37 -146 12z m334 -273 c0 -18 -6 -26 -23
-28 -27 -4 -40 22 -22 44 19 22 45 13 45 -16z m-519 -215 c7 -17 -12 -45 -31
-45 -16 0 -26 25 -19 45 8 19 43 19 50 0z"/>
<path d="M7720 8610 c-70 -9 -148 -35 -166 -56 -6 -7 -32 -22 -57 -33 -26 -11
-47 -24 -47 -29 0 -5 -20 -17 -45 -28 -28 -11 -45 -24 -45 -35 0 -9 34 -72 75
-139 41 -67 75 -124 75 -126 0 -2 21 -37 46 -79 44 -71 72 -92 88 -66 4 5 43
31 88 57 103 59 150 93 181 130 60 72 81 178 42 220 -12 13 -30 41 -39 62 -13
28 -36 51 -76 78 -32 21 -56 42 -54 46 3 4 4 7 2 7 -2 -1 -32 -5 -68 -9z m58
-106 c23 -16 30 -58 12 -69 -5 -3 -10 -14 -10 -24 0 -48 -172 -67 -248 -27
-31 16 -36 43 -6 32 8 -3 14 0 14 7 0 27 135 96 190 97 14 0 36 -7 48 -16z
m81 -212 c-29 -35 -118 -103 -176 -134 -33 -18 -47 -20 -60 -12 -18 11 -56 73
-68 113 l-7 24 73 -7 c88 -9 153 4 205 39 48 32 67 19 33 -23z"/>
<path d="M1094 8286 c-69 -35 -133 -138 -134 -214 0 -28 -16 -59 -43 -88 -24
-25 -47 -95 -47 -144 0 -53 51 -150 101 -193 69 -59 186 -83 279 -57 58 16 71
30 64 68 -5 26 -11 32 -33 32 -15 0 -33 -6 -39 -12 -7 -7 -38 -13 -70 -12
-120 0 -220 92 -209 192 6 58 14 63 44 27 86 -104 135 -135 228 -142 55 -5 64
-2 102 26 96 70 100 179 8 267 -53 50 -107 68 -210 69 -86 1 -89 4 -58 51 33
51 119 73 194 51 66 -20 113 -59 140 -117 13 -28 28 -50 34 -50 5 0 23 10 39
23 28 22 28 24 13 53 -25 45 -90 126 -112 138 -11 6 -32 19 -47 29 -18 12 -55
20 -110 23 -75 5 -88 3 -134 -20z m160 -298 c49 -24 72 -62 62 -102 -14 -58
-61 -70 -139 -37 -67 29 -124 114 -97 146 20 24 120 19 174 -7z"/>
<path d="M7925 8031 c-16 -4 -52 -18 -80 -31 -27 -12 -63 -25 -80 -29 -24 -5
-32 -14 -41 -46 -6 -22 -14 -48 -19 -58 -4 -11 -3 -35 4 -58 15 -49 40 -51 65
-6 50 87 125 137 206 137 99 0 149 -43 135 -116 -8 -44 -44 -77 -106 -95 -30
-9 -98 -29 -153 -45 -54 -16 -101 -35 -103 -42 -9 -21 18 -72 38 -72 10 0 38
6 61 14 47 16 164 48 188 51 8 1 32 6 53 10 51 10 84 -6 103 -52 33 -78 -10
-132 -136 -170 -30 -10 -57 -20 -60 -24 -3 -3 -19 -14 -37 -23 -17 -9 -38 -24
-45 -33 -32 -43 -43 -45 -82 -14 -74 59 -165 65 -230 16 -18 -13 -45 -24 -62
-24 -104 2 -119 -1 -136 -23 -23 -30 -22 -84 1 -228 23 -137 28 -150 51 -150
27 0 33 16 17 42 -8 13 -19 70 -26 128 -7 57 -17 113 -23 123 -7 15 -6 23 6
35 24 24 34 7 46 -78 34 -229 82 -282 241 -267 84 7 142 44 175 110 15 29 28
53 29 55 2 2 27 -9 56 -24 73 -39 187 -39 269 -2 59 27 117 80 146 134 18 33
18 34 -6 59 -28 30 -56 32 -65 6 -6 -18 -60 -81 -70 -81 -3 0 -19 -10 -35 -21
-20 -16 -48 -23 -99 -27 -64 -4 -75 -2 -110 21 -44 30 -56 71 -33 118 18 38
26 43 137 88 134 55 186 110 181 191 -6 81 -18 110 -63 155 -37 38 -42 47 -34
64 18 33 13 110 -11 157 -31 63 -78 102 -145 119 -62 16 -73 17 -118 6z m-148
-731 c34 -20 58 -55 45 -64 -5 -3 -30 1 -57 9 -66 20 -88 19 -145 -10 -60 -30
-80 -32 -80 -5 0 15 7 20 24 20 14 0 37 11 52 25 48 45 112 55 161 25z m0
-122 c38 -31 -4 -79 -76 -86 -46 -4 -50 -3 -64 25 -14 26 -14 31 1 50 10 11
24 23 32 26 21 8 91 -1 107 -15z m73 -94 c0 -4 -5 -24 -12 -45 -9 -31 -20 -43
-52 -58 -46 -22 -141 -33 -169 -19 -19 9 -47 69 -47 99 0 23 -3 23 45 -1 54
-28 119 -26 175 5 47 25 60 29 60 19z"/>
<path d="M789 7497 c-37 -31 -54 -63 -69 -129 -25 -111 15 -216 107 -278 39
-27 61 -34 114 -38 62 -4 127 8 153 29 6 5 25 20 41 33 50 40 87 127 87 206 1
59 -3 72 -27 104 -32 42 -79 55 -126 36 -34 -15 -56 -50 -65 -109 -6 -37 -3
-44 29 -76 21 -21 45 -35 59 -35 36 0 40 -9 18 -40 -38 -53 -141 -74 -220 -46
-24 9 -47 30 -72 66 -21 29 -38 57 -38 62 0 4 24 8 53 8 61 0 88 15 111 64 27
58 21 99 -19 135 -44 38 -97 42 -136 8z m79 -69 c7 -7 12 -20 12 -29 0 -24
-38 -35 -56 -17 -12 12 -12 17 2 36 17 25 25 27 42 10z m270 -75 c3 -22 -28
-40 -48 -28 -12 7 -13 38 -3 49 15 14 48 1 51 -21z"/>
<path d="M2282 4321 c-8 -4 -12 -19 -10 -32 4 -30 45 -33 62 -6 9 15 7 21 -8
33 -23 16 -26 17 -44 5z"/>
<path d="M2432 4284 c-21 -23 -10 -49 21 -52 35 -4 46 21 22 48 -21 24 -26 24
-43 4z"/>
<path d="M2634 4218 c-6 -20 15 -48 36 -48 16 0 40 38 34 54 -10 25 -61 21
-70 -6z"/>
<path d="M2190 4155 c-17 -20 -8 -49 16 -53 27 -4 47 21 39 48 -7 23 -37 27
-55 5z"/>
<path d="M2857 4163 c-12 -11 -8 -40 7 -52 22 -18 56 3 56 34 0 21 -5 25 -28
25 -16 0 -32 -3 -35 -7z"/>
<path d="M2413 4104 c-8 -22 10 -49 32 -49 10 0 22 7 28 16 15 24 1 49 -28 49
-15 0 -28 -7 -32 -16z"/>
<path d="M3037 4093 c-13 -12 -7 -42 10 -52 23 -12 53 4 53 28 0 25 -45 42
-63 24z"/>
<path d="M2634 4056 c-15 -12 -17 -18 -8 -33 15 -24 58 -24 62 0 4 18 -14 47
-27 47 -4 0 -16 -6 -27 -14z"/>
<path d="M3226 4025 c-6 -18 29 -58 46 -53 19 7 32 34 25 52 -8 21 -63 22 -71
1z"/>
<path d="M2094 4006 c-15 -12 -17 -18 -8 -33 16 -27 51 -29 59 -3 6 20 -9 50
-24 50 -4 0 -16 -6 -27 -14z"/>
<path d="M2857 3995 c-23 -17 -19 -58 6 -63 10 -2 24 2 32 8 36 30 -1 82 -38
55z"/>
<path d="M2214 3966 c-15 -12 -17 -18 -8 -33 16 -27 50 -28 64 -3 9 16 8 25
-1 36 -15 18 -30 18 -55 0z"/>
<path d="M3421 3967 c-18 -18 -13 -55 10 -68 18 -9 25 -7 41 9 17 17 18 22 7
40 -16 25 -43 34 -58 19z"/>
<path d="M2417 3935 c-28 -21 -18 -50 18 -50 24 0 31 5 33 24 2 13 -2 28 -10
32 -17 11 -20 11 -41 -6z"/>
<path d="M3038 3919 c-35 -20 -17 -59 27 -59 19 0 29 38 15 55 -14 17 -19 18
-42 4z"/>
<path d="M2627 3883 c-4 -3 -7 -17 -7 -30 0 -33 27 -40 52 -15 19 19 20 22 5
36 -16 17 -39 21 -50 9z"/>
<path d="M3597 3874 c-14 -14 -7 -44 14 -55 29 -15 59 12 43 39 -12 18 -45 28
-57 16z"/>
<path d="M3231 3856 c-17 -20 -5 -56 18 -56 42 0 55 62 15 68 -11 2 -26 -4
-33 -12z"/>
<path d="M2012 3838 c-28 -28 2 -67 37 -48 25 13 28 45 5 54 -22 8 -28 8 -42
-6z"/>
<path d="M2841 3806 c-26 -31 14 -71 45 -45 8 7 14 22 12 33 -4 26 -40 33 -57
12z"/>
<path d="M2195 3790 c-9 -15 3 -47 21 -54 18 -7 54 10 54 26 0 27 -62 50 -75
28z"/>
<path d="M3412 3788 c-25 -25 -6 -68 30 -68 27 0 40 40 20 63 -18 20 -33 22
-50 5z"/>
<path d="M3773 3793 c-16 -6 -17 -35 -1 -51 29 -29 66 -2 53 39 -6 18 -26 23
-52 12z"/>
<path d="M2405 3757 c-20 -16 -15 -44 11 -54 23 -9 51 23 38 44 -14 23 -27 26
-49 10z"/>
<path d="M3013 3734 c-9 -24 10 -49 38 -49 18 0 25 6 27 24 6 38 -52 59 -65
25z"/>
<path d="M2615 3700 c-18 -20 -18 -21 1 -41 21 -20 21 -20 45 0 20 16 22 23
13 38 -16 26 -37 27 -59 3z"/>
<path d="M3590 3689 c-14 -24 2 -49 31 -49 20 0 36 40 24 59 -11 18 -44 12
-55 -10z"/>
<path d="M1855 3680 c-9 -27 1 -40 30 -40 25 0 46 26 38 48 -8 21 -61 15 -68
-8z"/>
<path d="M3956 3684 c-22 -21 -20 -41 4 -54 14 -8 26 -8 40 0 25 14 26 46 1
60 -25 13 -27 13 -45 -6z"/>
<path d="M3213 3674 c-8 -22 10 -49 32 -49 10 0 22 7 28 16 15 24 1 49 -28 49
-15 0 -28 -7 -32 -16z"/>
<path d="M1996 3665 c-20 -20 -5 -55 23 -55 28 0 47 28 34 48 -14 23 -38 26
-57 7z"/>
<path d="M2831 3641 c-9 -6 -11 -18 -7 -35 9 -36 53 -37 62 -2 3 14 3 30 -1
35 -8 13 -35 14 -54 2z"/>
<path d="M2194 3615 c-13 -20 -14 -28 -4 -40 7 -8 20 -15 30 -15 10 0 23 7 30
15 10 12 9 20 -4 40 -9 14 -21 25 -26 25 -5 0 -17 -11 -26 -25z"/>
<path d="M3762 3621 c-8 -4 -12 -19 -10 -32 4 -35 55 -40 67 -7 14 38 -21 62
-57 39z"/>
<path d="M3402 3608 c-16 -16 -15 -33 4 -52 21 -21 54 -4 54 28 0 33 -35 47
-58 24z"/>
<path d="M4097 3604 c-13 -14 -7 -53 11 -62 10 -6 27 -6 40 -1 18 7 23 15 20
36 -2 23 -9 29 -33 31 -17 2 -34 0 -38 -4z"/>
<path d="M2384 3586 c-16 -42 24 -83 52 -54 25 25 11 68 -22 68 -13 0 -27 -6
-30 -14z"/>
<path d="M3007 3573 c-22 -22 11 -77 39 -66 18 7 34 42 27 61 -5 13 -55 17
-66 5z"/>
<path d="M1788 3526 c-15 -33 -4 -56 26 -56 19 0 27 7 32 25 12 49 -37 75 -58
31z"/>
<path d="M2606 3534 c-19 -18 -19 -20 -6 -45 17 -31 70 -18 70 17 0 14 -27 44
-40 44 -5 0 -16 -7 -24 -16z"/>
<path d="M3578 3515 c-8 -19 -8 -28 2 -40 30 -36 83 3 60 45 -15 28 -48 25
-62 -5z"/>
<path d="M3206 3504 c-22 -21 -4 -54 29 -54 28 0 43 33 25 55 -16 19 -35 19
-54 -1z"/>
<path d="M3946 3501 c-15 -17 -16 -23 -6 -36 27 -33 86 -2 63 33 -15 25 -37
26 -57 3z"/>
<path d="M1993 3494 c-21 -9 -15 -52 7 -59 27 -8 52 12 48 39 -3 21 -30 30
-55 20z"/>
<path d="M4250 3469 c-9 -15 -8 -24 1 -35 17 -21 49 -17 58 9 17 43 -37 67
-59 26z"/>
<path d="M2823 3463 c-21 -8 -15 -41 9 -54 18 -10 24 -8 40 11 28 34 -3 62
-49 43z"/>
<path d="M2193 3443 c-17 -6 -16 -38 1 -52 18 -15 44 -4 52 21 9 29 -19 45
-53 31z"/>
<path d="M3749 3434 c-9 -11 -10 -20 -2 -32 15 -24 45 -27 60 -6 11 15 10 21
-4 36 -20 22 -36 23 -54 2z"/>
<path d="M3397 3428 c-11 -9 -15 -21 -11 -35 11 -41 68 -23 62 18 -4 28 -26
35 -51 17z"/>
<path d="M4091 3416 c-16 -20 3 -56 29 -56 23 0 43 32 34 54 -8 20 -48 21 -63
2z"/>
<path d="M2379 3404 c-15 -19 -2 -47 26 -52 25 -5 38 13 31 42 -7 30 -36 35
-57 10z"/>
<path d="M3008 3389 c-35 -20 -8 -67 32 -54 24 8 28 50 4 59 -19 7 -15 8 -36
-5z"/>
<path d="M2602 3359 c-19 -7 -22 -14 -16 -31 6 -22 21 -37 35 -38 3 0 14 9 25
21 13 15 16 24 8 36 -13 21 -24 24 -52 12z"/>
<path d="M3577 3342 c-14 -15 -15 -21 -4 -36 16 -21 45 -18 61 6 8 14 6 21 -9
32 -26 20 -29 20 -48 -2z"/>
<path d="M3208 3339 c-22 -12 -23 -42 -2 -60 31 -26 70 25 44 56 -14 17 -19
18 -42 4z"/>
<path d="M3930 3324 c-11 -13 -10 -18 7 -36 17 -16 24 -18 42 -9 25 14 28 46
5 55 -25 10 -41 7 -54 -10z"/>
<path d="M4258 3309 c-22 -13 -23 -55 -2 -63 25 -10 33 -7 44 13 14 27 -17 65
-42 50z"/>
<path d="M2809 3284 c-9 -11 -10 -20 -2 -32 15 -24 42 -27 58 -5 13 16 12 20
-6 36 -26 21 -33 21 -50 1z"/>
<path d="M3747 3262 c-21 -23 -21 -27 -2 -45 17 -18 51 -12 60 10 5 15 -20 53
-35 53 -4 0 -14 -8 -23 -18z"/>
<path d="M3385 3250 c-15 -16 -16 -22 -5 -35 17 -20 64 -16 68 6 3 16 -22 49
-37 49 -4 0 -16 -9 -26 -20z"/>
<path d="M4086 3244 c-12 -11 -13 -20 -6 -34 16 -29 30 -33 51 -14 23 21 24
28 3 48 -19 20 -29 20 -48 0z"/>
<path d="M2987 3213 c-13 -12 -7 -42 10 -52 25 -13 53 5 53 34 0 21 -5 25 -28
25 -16 0 -32 -3 -35 -7z"/>
<path d="M3567 3162 c-15 -16 -15 -21 -3 -38 12 -15 19 -17 32 -8 30 18 41 43
24 54 -22 14 -35 12 -53 -8z"/>
<path d="M3191 3146 c-16 -30 -8 -46 25 -46 28 0 42 25 27 49 -16 25 -38 24
-52 -3z"/>
<path d="M3924 3156 c-3 -8 -4 -23 -2 -33 4 -24 47 -24 62 0 9 15 7 21 -8 33
-25 18 -45 18 -52 0z"/>
<path d="M4229 3124 c-17 -21 0 -48 34 -52 21 -3 28 2 33 23 10 42 -39 63 -67
29z"/>
<path d="M3730 3080 c-9 -16 -8 -25 1 -36 26 -32 84 0 62 34 -16 26 -50 27
-63 2z"/>
<path d="M3376 3075 c-20 -20 -5 -55 23 -55 28 0 47 28 34 48 -14 23 -38 26
-57 7z"/>
<path d="M4080 3065 c-16 -19 -9 -49 13 -53 38 -7 66 49 31 62 -23 9 -30 8
-44 -9z"/>
<path d="M3550 2985 c-10 -12 -10 -18 0 -30 25 -30 78 -7 64 29 -8 20 -47 21
-64 1z"/>
<path d="M3926 2984 c-18 -17 -19 -24 -10 -48 12 -32 64 -11 64 26 0 27 -35
42 -54 22z"/>
<path d="M4225 2950 c-17 -19 -17 -21 0 -40 10 -11 22 -20 26 -20 10 0 39 29
39 40 0 11 -29 40 -39 40 -4 0 -16 -9 -26 -20z"/>
<path d="M3733 2923 c-7 -2 -13 -15 -13 -28 0 -46 52 -56 66 -12 4 14 1 25
-12 34 -19 14 -22 14 -41 6z"/>
<path d="M4075 2896 c-20 -15 -17 -44 7 -59 12 -8 21 -7 32 2 36 30 -1 85 -39
57z"/>
<path d="M3916 2807 c-28 -21 -17 -52 19 -52 24 0 31 5 33 24 2 13 -2 28 -10
32 -18 12 -21 11 -42 -4z"/>
<path d="M4228 2783 c-23 -6 -24 -51 -2 -60 35 -13 72 39 42 58 -7 5 -15 8
-18 8 -3 -1 -13 -3 -22 -6z"/>
<path d="M4057 2713 c-29 -32 20 -72 51 -41 17 17 15 45 -4 52 -24 9 -29 8
-47 -11z"/>
<path d="M4207 2603 c-12 -11 -8 -40 7 -52 26 -22 63 10 50 44 -6 15 -45 21
-57 8z"/>
<path d="M6799 4264 c-17 -21 0 -49 31 -49 31 0 48 28 31 49 -8 9 -21 16 -31
16 -10 0 -23 -7 -31 -16z"/>
<path d="M6651 4231 c-13 -24 8 -55 34 -50 28 6 42 34 26 53 -18 22 -48 20
-60 -3z"/>
<path d="M6440 4179 c-14 -24 2 -49 31 -49 28 0 43 35 23 54 -21 22 -41 20
-54 -5z"/>
<path d="M6231 4116 c-9 -11 -10 -20 -1 -36 14 -25 48 -24 64 3 9 15 7 21 -8
33 -25 18 -40 18 -55 0z"/>
<path d="M6896 4114 c-28 -27 -12 -64 26 -64 29 0 40 41 17 63 -22 21 -24 21
-43 1z"/>
<path d="M6677 4069 c-21 -12 -22 -42 -2 -59 19 -16 41 -7 48 19 7 27 -22 53
-46 40z"/>
<path d="M6062 4048 c-17 -17 -15 -55 4 -62 20 -8 54 11 54 30 0 17 -23 44
-37 44 -5 0 -14 -5 -21 -12z"/>
<path d="M6446 4005 c-9 -26 12 -55 40 -55 22 0 25 4 22 33 -2 26 -8 33 -29
35 -17 2 -29 -3 -33 -13z"/>
<path d="M5867 3989 c-23 -13 -22 -46 2 -59 15 -7 23 -6 35 6 20 20 20 27 -2
47 -12 11 -22 13 -35 6z"/>
<path d="M6993 3958 c-13 -15 -15 -23 -7 -36 15 -24 45 -27 60 -8 29 40 -19
81 -53 44z"/>
<path d="M6247 3943 c-13 -12 -7 -51 9 -57 27 -10 34 -7 45 21 7 20 6 28 -3
35 -16 9 -42 10 -51 1z"/>
<path d="M6865 3910 c-8 -25 10 -50 36 -50 20 0 36 40 24 59 -11 19 -53 12
-60 -9z"/>
<path d="M5674 3906 c-15 -12 -17 -18 -8 -33 17 -27 51 -28 65 -2 10 19 9 25
-7 36 -22 16 -26 16 -50 -1z"/>
<path d="M6682 3888 c-30 -30 1 -73 36 -51 23 14 25 29 7 47 -20 19 -27 20
-43 4z"/>
<path d="M6066 3867 c-15 -11 -17 -17 -7 -35 22 -41 80 -16 66 28 -7 23 -33
26 -59 7z"/>
<path d="M6456 3823 c-4 -10 1 -24 12 -36 17 -16 22 -17 41 -6 11 8 21 21 21
30 0 31 -63 41 -74 12z"/>
<path d="M5491 3816 c-15 -18 2 -56 24 -56 14 0 45 26 45 39 0 28 -50 40 -69
17z"/>
<path d="M5864 3806 c-11 -28 1 -51 25 -51 32 0 49 28 32 49 -17 20 -50 21
-57 2z"/>
<path d="M7077 3792 c-20 -22 -5 -52 27 -52 31 0 41 28 20 51 -21 23 -27 24
-47 1z"/>
<path d="M6249 3759 c-9 -18 -7 -25 10 -42 20 -20 21 -20 41 -2 24 22 25 29 4
49 -21 22 -41 20 -55 -5z"/>
<path d="M6882 3748 c-26 -26 -8 -58 34 -58 20 0 30 50 13 61 -19 12 -33 11
-47 -3z"/>
<path d="M5320 3735 c-10 -12 -11 -21 -3 -33 14 -23 34 -26 58 -8 16 12 18 18
9 33 -15 24 -47 28 -64 8z"/>
<path d="M5682 3728 c-17 -17 -15 -35 5 -47 23 -12 53 4 53 28 0 28 -37 40
-58 19z"/>
<path d="M6677 3701 c-11 -44 42 -71 63 -32 15 29 2 51 -30 51 -19 0 -29 -6
-33 -19z"/>
<path d="M6088 3694 c-33 -17 -34 -25 -10 -47 26 -24 41 -21 54 8 9 21 9 29
-3 40 -12 12 -18 11 -41 -1z"/>
<path d="M6471 3656 c-20 -24 2 -55 34 -48 21 4 26 9 23 31 -3 30 -38 41 -57
17z"/>
<path d="M7238 3663 c-24 -6 -35 -52 -17 -64 24 -15 48 -10 60 12 9 18 8 25
-7 39 -11 9 -27 15 -36 13z"/>
<path d="M5500 3645 c-19 -23 -3 -57 27 -53 38 4 53 33 28 52 -25 19 -39 20
-55 1z"/>
<path d="M5139 3631 c-20 -16 -21 -21 -10 -35 31 -38 83 -5 59 38 -12 21 -21
20 -49 -3z"/>
<path d="M5888 3639 c-21 -12 -23 -42 -4 -58 30 -25 71 24 46 54 -14 17 -19
18 -42 4z"/>
<path d="M7091 3622 c-15 -13 -17 -22 -11 -39 10 -25 39 -30 58 -11 18 18 15
42 -7 55 -16 10 -23 9 -40 -5z"/>
<path d="M6268 3596 c-21 -15 -23 -37 -6 -54 20 -20 48 -14 60 14 11 22 10 28
-7 40 -23 17 -25 17 -47 0z"/>
<path d="M5330 3575 c-15 -18 -6 -61 15 -69 15 -5 55 25 55 42 -1 30 -51 50
-70 27z"/>
<path d="M6892 3578 c-28 -28 -1 -75 38 -63 33 11 21 75 -15 75 -6 0 -16 -5
-23 -12z"/>
<path d="M5692 3568 c-25 -25 -7 -68 29 -68 9 0 22 7 29 15 11 13 11 20 0 40
-14 27 -39 32 -58 13z"/>
<path d="M4977 3554 c-13 -13 -7 -41 13 -59 19 -17 21 -17 40 0 30 27 22 59
-15 63 -17 2 -34 0 -38 -4z"/>
<path d="M6702 3551 c-8 -5 -12 -21 -10 -37 3 -25 7 -29 33 -29 26 0 30 4 33
29 3 27 -10 46 -33 46 -5 0 -16 -4 -23 -9z"/>
<path d="M6088 3516 c-6 -14 -8 -32 -5 -40 9 -23 44 -20 57 5 9 16 8 25 -6 40
-23 25 -32 24 -46 -5z"/>
<path d="M6490 3482 c-25 -20 -19 -48 13 -58 14 -4 25 -1 34 12 18 25 16 42
-6 54 -14 7 -24 5 -41 -8z"/>
<path d="M7300 3480 c-24 -24 -16 -50 16 -50 32 0 49 33 28 54 -20 20 -20 20
-44 -4z"/>
<path d="M5507 3458 c-7 -24 8 -48 28 -48 6 0 20 9 30 20 15 16 15 22 5 35
-19 23 -57 19 -63 -7z"/>
<path d="M5141 3456 c-9 -11 -10 -20 -1 -35 14 -28 56 -28 65 -1 13 40 -38 68
-64 36z"/>
<path d="M5890 3455 c-19 -23 -8 -50 22 -53 19 -2 28 2 33 18 12 39 -29 66
-55 35z"/>
<path d="M7096 3444 c-21 -21 -20 -30 6 -48 15 -11 26 -12 40 -5 24 13 23 46
-1 59 -25 13 -27 13 -45 -6z"/>
<path d="M4834 3415 c-9 -23 3 -45 24 -45 25 0 46 25 38 45 -7 19 -55 20 -62
0z"/>
<path d="M6279 3411 c-20 -16 -21 -21 -10 -35 17 -21 57 -21 65 0 10 25 7 33
-13 44 -15 7 -25 5 -42 -9z"/>
<path d="M6903 3403 c-20 -7 -15 -51 6 -63 27 -14 51 -2 51 26 0 19 -27 47
-42 43 -2 0 -9 -3 -15 -6z"/>
<path d="M5346 3387 c-15 -11 -17 -17 -7 -35 12 -23 20 -26 45 -16 29 11 15
64 -18 64 -1 0 -10 -6 -20 -13z"/>
<path d="M5702 3378 c-16 -16 -15 -33 3 -48 28 -24 72 9 59 45 -7 18 -45 20
-62 3z"/>
<path d="M4996 3367 c-15 -11 -17 -17 -7 -35 22 -41 76 -19 64 26 -6 25 -30
28 -57 9z"/>
<path d="M6707 3358 c-22 -16 -14 -45 15 -54 29 -9 57 20 42 44 -14 22 -35 26
-57 10z"/>
<path d="M6108 3346 c-22 -16 -23 -52 -3 -60 38 -14 67 27 38 55 -15 15 -21
16 -35 5z"/>
<path d="M6497 3306 c-15 -12 -16 -18 -7 -35 14 -27 46 -27 60 0 9 15 8 24 -1
35 -14 17 -29 17 -52 0z"/>
<path d="M5525 3290 c-22 -24 -13 -50 18 -50 35 0 52 23 35 49 -16 26 -30 26
-53 1z"/>
<path d="M5908 3289 c-39 -22 -8 -81 31 -59 24 13 27 35 7 56 -17 16 -16 16
-38 3z"/>
<path d="M5157 3283 c-16 -15 -6 -52 15 -59 35 -11 67 47 32 60 -20 8 -39 8
-47 -1z"/>
<path d="M4836 3244 c-6 -15 18 -54 33 -54 21 1 42 31 36 49 -8 26 -60 29 -69
5z"/>
<path d="M6282 3234 c-12 -13 -11 -18 4 -35 22 -25 41 -24 54 2 21 39 -29 67
-58 33z"/>
<path d="M5357 3212 c-21 -23 -21 -27 -1 -46 12 -12 20 -13 35 -6 23 13 25 55
3 64 -21 8 -19 9 -37 -12z"/>
<path d="M5723 3208 c-29 -14 -29 -33 -1 -52 21 -15 24 -14 43 4 15 16 17 24
9 37 -14 22 -24 24 -51 11z"/>
<path d="M5001 3192 c-18 -32 10 -69 44 -56 16 7 29 39 21 53 -11 17 -56 19
-65 3z"/>
<path d="M6104 3156 c-11 -28 4 -48 33 -44 22 2 28 8 28 28 0 20 -6 26 -28 28
-18 2 -29 -2 -33 -12z"/>
<path d="M5533 3123 c-17 -6 -16 -38 2 -53 28 -24 72 9 59 45 -6 15 -36 19
-61 8z"/>
<path d="M5164 3106 c-11 -28 1 -51 25 -51 32 0 49 28 32 49 -17 20 -50 21
-57 2z"/>
<path d="M5905 3110 c-12 -20 4 -60 24 -60 28 0 47 28 34 48 -12 20 -48 28
-58 12z"/>
<path d="M4855 3070 c-15 -16 -15 -22 -5 -35 18 -21 47 -19 60 6 9 15 8 24 -1
35 -16 19 -33 18 -54 -6z"/>
<path d="M5362 3038 c-28 -28 1 -64 43 -54 33 8 35 51 3 60 -31 8 -32 8 -46
-6z"/>
<path d="M5721 3026 c-9 -11 -10 -20 -1 -35 16 -31 49 -25 62 10 13 33 -38 53
-61 25z"/>
<path d="M5011 3016 c-9 -11 -10 -20 -1 -35 18 -35 70 -21 70 20 0 29 -49 39
-69 15z"/>
<path d="M5544 2946 c-15 -12 -17 -18 -8 -33 14 -23 53 -23 67 -1 8 12 7 21
-2 32 -17 20 -32 20 -57 2z"/>
<path d="M5177 2933 c-13 -12 -7 -51 9 -57 22 -8 54 11 54 33 0 25 -45 42 -63
24z"/>
<path d="M4866 2901 c-19 -20 -13 -46 12 -56 18 -7 56 31 46 46 -14 23 -42 28
-58 10z"/>
<path d="M5376 2864 c-22 -21 -20 -41 4 -54 23 -12 35 -7 50 20 7 14 6 23 -6
34 -19 20 -29 20 -48 0z"/>
<path d="M5026 2838 c-24 -35 6 -73 40 -50 17 11 22 35 12 55 -12 23 -34 22
-52 -5z"/>
<path d="M5185 2750 c-15 -16 -15 -22 -5 -35 18 -22 57 -19 65 5 7 22 -10 50
-30 50 -6 0 -20 -9 -30 -20z"/>
<path d="M4882 2731 c-8 -4 -12 -19 -10 -32 4 -30 45 -33 62 -6 9 15 7 21 -8
33 -23 16 -26 17 -44 5z"/>
<path d="M5036 2661 c-16 -17 -16 -20 -1 -35 20 -19 26 -20 49 -3 15 11 17 17
7 35 -14 27 -33 28 -55 3z"/>
<path d="M4893 2554 c-22 -9 -15 -52 9 -60 24 -7 51 19 46 46 -3 15 -33 23
-55 14z"/>
<path d="M1693 1563 c-35 -7 -80 -55 -92 -99 -40 -143 46 -250 183 -230 49 8
116 59 116 89 0 20 -73 43 -79 26 -2 -6 -12 -20 -23 -31 -23 -23 -75 -18 -95
9 -18 24 -16 124 3 151 19 28 63 29 97 2 29 -23 56 -25 81 -7 16 12 16 14 -5
41 -37 47 -104 65 -186 49z"/>
<path d="M2035 1552 c-49 -24 -75 -66 -82 -135 -13 -128 94 -213 225 -178 32
9 50 22 72 53 26 36 30 50 30 107 0 109 -44 159 -147 167 -43 4 -68 0 -98 -14z
m132 -78 c23 -23 25 -31 21 -81 -4 -43 -10 -61 -28 -75 -30 -24 -59 -23 -87 4
-32 29 -33 128 -3 158 27 27 66 25 97 -6z"/>
<path d="M2415 1547 c-73 -41 -97 -145 -54 -235 49 -100 214 -111 270 -18 10
17 19 34 19 37 0 3 -17 11 -37 17 -31 9 -39 9 -45 -3 -28 -49 -81 -60 -114
-24 -26 29 -26 129 0 158 25 27 70 27 97 0 16 -16 28 -20 55 -14 38 7 42 19
18 54 -37 53 -141 67 -209 28z"/>
<path d="M2704 1555 c-3 -6 -3 -78 -2 -160 l3 -150 48 -3 47 -3 0 65 0 66 60
0 60 0 0 -65 0 -65 45 0 45 0 0 160 0 160 -45 0 -45 0 0 -55 0 -55 -60 0 -60
0 0 54 0 54 -46 4 c-27 2 -48 -1 -50 -7z"/>
<path d="M3528 1562 l-38 -3 0 -86 c0 -101 -3 -101 -77 12 l-48 75 -47 0 -48
0 0 -160 0 -160 45 0 45 0 0 79 c0 44 4 82 8 85 4 2 34 -33 65 -80 l58 -84 44
0 45 0 0 159 c0 88 -3 161 -7 163 -5 2 -25 2 -45 0z"/>
<path d="M3813 1553 c-3 -7 -3 -64 -1 -126 4 -127 15 -154 75 -182 45 -21 137
-16 177 10 46 31 56 63 56 190 l0 115 -45 0 c-29 0 -45 -4 -46 -12 -1 -7 0
-51 1 -98 1 -47 -3 -97 -9 -112 -12 -32 -45 -43 -84 -29 l-27 11 0 107 c0 60
-4 113 -8 119 -11 17 -83 23 -89 7z"/>
<path d="M5863 1555 c-36 -16 -53 -42 -53 -83 0 -39 28 -62 108 -88 54 -17 68
-26 70 -44 7 -45 -55 -55 -92 -15 -15 17 -34 25 -55 25 -38 0 -50 -23 -30 -58
31 -55 130 -78 204 -48 37 16 75 67 75 103 0 41 -47 81 -121 104 -54 16 -69
25 -69 40 0 25 54 26 75 1 11 -13 26 -16 55 -14 42 4 47 11 29 44 -23 43 -130
62 -196 33z"/>
<path d="M7256 1560 c-63 -19 -96 -73 -96 -157 0 -113 56 -168 170 -168 70 0
93 10 131 59 31 40 38 148 11 196 -34 64 -131 95 -216 70z m114 -80 c11 -11
21 -29 21 -40 1 -11 2 -28 2 -37 2 -47 -13 -84 -40 -94 -63 -24 -109 27 -100
110 8 73 72 106 117 61z"/>
<path d="M3099 1430 c-1 -71 -1 -139 -1 -150 0 -11 0 -24 1 -30 1 -5 21 -10
46 -10 l45 0 0 160 0 160 -45 0 -45 0 -1 -130z"/>
<path d="M4190 1400 l0 -160 45 0 45 0 0 86 c0 102 3 102 82 -13 50 -72 51
-73 94 -73 l44 0 0 160 0 160 -45 0 -45 0 0 -80 c0 -46 -4 -80 -10 -80 -5 0
-34 36 -62 80 l-53 80 -47 0 -48 0 0 -160z"/>
<path d="M4582 1403 l3 -158 48 -3 47 -3 0 160 0 161 -50 0 -51 0 3 -157z"/>
<path d="M4759 1483 c16 -43 43 -115 61 -160 l31 -83 53 0 53 0 57 153 c31 85
56 157 56 160 0 4 -20 7 -45 7 l-44 0 -32 -102 c-17 -57 -35 -107 -39 -112
-11 -11 -20 10 -55 127 l-26 87 -49 0 -49 0 28 -77z"/>
<path d="M5120 1400 l0 -160 135 0 135 0 0 35 0 35 -85 0 -85 0 0 29 c0 35 13
41 91 41 l59 0 0 35 0 35 -81 0 c-76 0 -80 1 -77 21 3 20 10 22 88 23 l85 1 3
33 3 32 -135 0 -136 0 0 -160z"/>
<path d="M5450 1400 l0 -160 50 0 50 0 0 65 c0 58 2 65 20 65 13 0 30 -20 55
-65 l37 -65 49 0 c28 0 49 5 49 11 0 15 -48 95 -65 109 -13 11 -11 17 15 47
17 18 31 38 31 43 1 6 2 16 3 23 4 23 -25 68 -50 77 -14 6 -75 10 -135 10
l-109 0 0 -160z m194 67 c15 -23 -6 -37 -56 -37 -36 0 -38 2 -38 31 0 29 1 30
41 27 27 -2 46 -9 53 -21z"/>
<path d="M6150 1400 l0 -160 45 0 45 0 0 160 0 160 -45 0 -45 0 0 -160z"/>
<path d="M6300 1531 c0 -33 14 -41 68 -41 l37 0 -3 -92 c-2 -50 -1 -107 3
-125 6 -31 8 -33 50 -33 l45 0 0 125 0 125 45 0 c40 0 47 3 55 26 6 14 10 30
10 35 0 5 -66 9 -155 9 l-155 0 0 -29z"/>
<path d="M6637 1547 c4 -7 31 -47 60 -89 49 -71 52 -80 55 -144 l3 -69 48 -3
47 -3 0 71 c0 69 2 73 50 145 71 105 71 105 16 105 -45 0 -47 -2 -77 -50 -17
-27 -35 -50 -40 -50 -5 0 -21 22 -37 50 l-27 50 -53 0 c-41 0 -51 -3 -45 -13z"/>
<path d="M7550 1400 l0 -160 45 0 c49 0 46 -5 49 80 l1 45 63 3 62 3 0 34 0
35 -65 0 c-63 0 -65 1 -65 25 0 24 2 25 75 25 43 0 75 4 76 10 7 58 14 55
-119 58 l-122 3 0 -161z"/>
<path d="M1143 1009 c-37 -11 -73 -52 -73 -84 0 -12 9 -33 19 -47 17 -22 41
-32 130 -57 59 -17 47 -71 -15 -71 -23 0 -38 6 -46 20 -10 15 -24 20 -55 20
-47 0 -51 -6 -27 -51 19 -38 68 -59 134 -59 84 0 140 44 140 109 0 48 -40 85
-120 110 -54 17 -70 27 -68 39 5 26 53 27 78 2 18 -18 29 -20 61 -15 45 8 47
13 19 48 -33 41 -107 56 -177 36z"/>
<path d="M1497 1006 c-71 -26 -102 -82 -95 -174 7 -101 63 -152 165 -152 60 0
91 16 120 59 26 38 22 48 -23 57 -25 5 -33 1 -47 -20 -14 -21 -26 -26 -56 -26
-53 0 -66 19 -66 97 0 56 3 67 24 84 32 26 63 24 91 -6 17 -19 29 -23 49 -19
39 10 46 20 32 47 -28 52 -125 78 -194 53z"/>
<path d="M2773 1010 c-77 -18 -113 -71 -113 -167 0 -103 60 -163 162 -163 63
0 110 25 133 70 15 30 15 30 -10 40 -38 14 -65 12 -65 -5 0 -33 -86 -48 -110
-20 -18 21 -24 104 -11 138 6 15 22 32 35 38 32 15 77 3 83 -22 4 -12 12 -18
22 -15 53 15 61 19 61 30 0 20 -54 66 -91 76 -38 11 -50 11 -96 0z"/>
<path d="M5525 1005 c-22 -8 -41 -15 -42 -15 -1 0 -14 -17 -28 -37 -20 -31
-25 -49 -25 -103 0 -111 55 -170 160 -170 65 0 111 24 135 70 15 30 15 30 -10
40 -38 14 -65 12 -65 -5 0 -33 -86 -48 -110 -20 -18 21 -24 104 -11 138 15 38
51 53 91 37 16 -7 30 -19 30 -27 0 -10 7 -12 20 -9 11 3 29 9 40 12 11 3 20 9
20 14 0 21 -55 70 -88 80 -48 13 -69 12 -117 -5z"/>
<path d="M6675 1011 c-45 -11 -74 -32 -97 -69 -27 -44 -30 -133 -5 -183 49
-98 224 -108 291 -16 29 39 30 157 2 203 -31 52 -122 83 -191 65z m100 -94
c23 -33 20 -122 -5 -147 -29 -29 -74 -26 -99 6 -24 30 -28 95 -8 134 21 42 85
46 112 7z"/>
<path d="M7345 1008 c-74 -27 -111 -94 -102 -185 11 -101 74 -150 184 -141 95
8 143 66 143 172 0 67 -25 118 -69 141 -38 19 -120 27 -156 13z m95 -73 c21
-11 31 -25 36 -50 14 -75 -16 -135 -68 -135 -46 0 -68 31 -68 98 0 31 4 62 8
69 6 9 41 28 60 32 2 1 16 -6 32 -14z"/>
<path d="M7714 1001 c-57 -26 -85 -69 -91 -139 -6 -72 25 -138 78 -164 53 -28
141 -24 200 9 l49 26 0 69 0 68 -75 0 -75 0 0 -35 c0 -32 2 -35 29 -35 33 0
49 -16 33 -32 -6 -6 -30 -12 -54 -15 -62 -7 -88 20 -88 90 0 32 6 62 16 76 17
24 12 24 139 6 22 -3 47 -1 55 4 13 9 12 14 -6 38 -38 50 -138 66 -210 34z"/>
<path d="M1775 998 c-3 -7 -4 -80 -3 -163 l3 -150 30 1 c17 1 38 2 48 3 16 1
17 14 15 159 l-3 157 -43 3 c-28 2 -44 -1 -47 -10z"/>
<path d="M1950 851 c0 -95 4 -161 10 -163 5 -1 66 -2 135 0 l126 3 -3 32 -3
32 -85 5 c-84 5 -85 5 -88 33 l-3 27 80 0 81 0 0 35 0 35 -75 0 c-73 0 -75 1
-75 25 0 25 1 25 79 25 76 0 79 1 85 25 4 14 4 30 1 35 -4 6 -64 10 -136 10
l-129 0 0 -159z"/>
<path d="M2280 851 c0 -156 0 -159 22 -164 12 -4 33 -4 45 -1 22 6 23 11 23
85 0 44 4 79 10 79 5 0 33 -36 62 -79 54 -82 77 -97 127 -84 20 5 21 10 21
165 l0 159 -42 -3 -43 -3 -5 -85 -5 -84 -25 30 c-14 17 -41 56 -60 87 -34 55
-36 56 -82 57 l-48 0 0 -159z"/>
<path d="M3030 851 l0 -158 121 -6 c67 -3 128 -3 135 0 8 3 14 18 14 33 0 33
-15 39 -97 35 -74 -3 -83 1 -83 36 l0 28 78 3 77 3 3 33 3 32 -74 0 c-40 0
-76 3 -79 6 -3 3 -4 14 -1 25 5 17 15 19 83 19 77 0 78 0 83 27 3 16 3 31 0
35 -2 5 -62 8 -134 8 l-129 0 0 -159z"/>
<path d="M3583 958 c-41 -102 -95 -259 -91 -263 2 -2 18 -6 35 -9 33 -6 63 13
63 40 0 11 15 14 60 14 56 0 60 -2 75 -30 16 -30 35 -36 81 -22 20 7 19 12
-35 162 l-56 155 -56 3 -55 3 -21 -53z m97 -91 c14 -45 12 -49 -28 -45 l-29 3
14 49 c16 53 24 51 43 -7z"/>
<path d="M3875 1000 c-6 -10 -6 -287 1 -304 4 -10 30 -13 71 -8 8 1 13 28 15
80 2 42 7 77 13 77 5 0 34 -36 65 -80 56 -80 56 -80 100 -80 l45 0 3 50 c2 28
1 101 -3 163 l-7 113 -42 -3 c-36 -3 -41 -6 -42 -28 0 -14 -1 -51 -2 -84 -2
-71 -9 -67 -73 32 -24 37 -48 70 -54 74 -15 11 -83 10 -90 -2z"/>
<path d="M4260 851 l0 -161 103 0 c61 0 112 5 126 13 39 20 63 62 69 117 6 64
-12 120 -50 157 -27 26 -35 28 -139 31 l-109 4 0 -161z m178 73 c18 -13 22
-25 22 -74 0 -69 -15 -90 -66 -90 l-34 0 0 90 0 90 28 0 c15 0 38 -7 50 -16z"/>
<path d="M4750 975 l0 -35 50 0 49 0 3 -127 3 -128 45 0 45 0 3 128 3 127 49
0 50 0 0 35 0 35 -150 0 -150 0 0 -35z"/>
<path d="M5106 994 c-3 -9 -6 -80 -6 -159 l0 -143 123 -4 c156 -4 159 -4 155
36 l-3 31 -87 3 -88 3 0 29 0 30 80 0 80 0 0 35 0 34 -77 3 c-72 3 -78 5 -81
26 -3 21 -1 22 82 22 l86 0 0 35 0 35 -129 0 c-108 0 -130 -3 -135 -16z"/>
<path d="M5800 847 l0 -162 45 3 45 4 0 58 0 58 60 4 60 3 0 -61 0 -62 34 -6
c66 -13 67 -11 64 163 l-3 156 -47 3 -48 3 0 -60 0 -61 -44 0 c-70 0 -76 5
-76 66 l0 54 -45 0 -45 0 0 -163z"/>
<path d="M6180 850 l0 -160 45 0 45 0 0 80 c0 44 4 80 8 80 5 0 34 -38 66 -84
59 -86 66 -91 124 -80 22 4 22 6 22 164 l0 160 -45 0 -45 0 0 -85 c0 -47 -3
-85 -7 -85 -5 0 -34 38 -67 85 -58 85 -59 85 -102 85 l-44 0 0 -160z"/>
<path d="M6950 851 c0 -88 3 -161 8 -163 4 -2 60 -2 125 0 l117 4 0 33 0 34
-77 3 -78 3 -3 123 -3 122 -44 0 -45 0 0 -159z"/>
<path d="M8000 1003 c0 -4 26 -45 57 -92 52 -77 58 -92 59 -141 2 -89 0 -85
47 -85 l42 0 3 69 c3 65 6 73 62 157 33 48 60 91 60 94 0 3 -22 5 -48 5 -47 0
-48 -1 -77 -50 -16 -27 -34 -50 -41 -50 -6 0 -25 23 -42 50 -30 48 -33 50 -77
50 -25 0 -45 -3 -45 -7z"/>
</g>
</svg>
